# xmcd
#
# Track frame offsets: 
#        150
#        14785
#        29501
#        50517
#        67074
#        86118
#        99570
#        104463
#        120830
#        134117
#        144106
#        158251
#
# Disc length: 2305 seconds
#
# Revision: 0
# Processed by: cddbd v1.5.2PL0 Copyright (c) Steve Scherf et al.
# Submitted via: ExactAudioCopyFreeDBPlugin 1.0
#
DISCID=a308ff0c
DTITLE=Twister - Be My Dolly
DYEAR=2017
DGENRE=Glam Punk
TTITLE0=Be My Dolly
TTITLE1=Make Up
TTITLE2=Teenage Hero
TTITLE3=Beautiful Fools
TTITLE4=People Like You
TTITLE5=Never Going Down
TTITLE6=Me Me Me
TTITLE7=7 Or 70
TTITLE8=Halfway Round The World
TTITLE9=Kill Me Again
TTITLE10=Old Queen, New Tricks
TTITLE11=Burp!
EXTD=
EXTT0=
EXTT1=
EXTT2=
EXTT3=
EXTT4=
EXTT5=
EXTT6=
EXTT7=
EXTT8=
EXTT9=
EXTT10=
EXTT11=
PLAYORDER=
